<?xml version="1.0" encoding="UTF-8"?>
<svg width="32" height="32" viewBox="0 0 32 32" fill="none" xmlns="http://www.w3.org/2000/svg">
  <circle cx="16" cy="16" r="15" fill="#07575B"/>
  <path
    d="M16 8C12.13 8 9 11.13 9 15C9 17.38 10.19 19.47 12 20.74V23C12 23.55 12.45 24 13 24H19C19.55 24 20 23.55 20 23V20.74C21.81 19.47 23 17.38 23 15C23 11.13 19.87 8 16 8ZM18 21H14V19H18V21ZM19.85 18.65L19 19.21V17H13V19.21L12.15 18.65C10.87 17.76 10 16.43 10 15C10 11.69 12.69 9 16 9C19.31 9 22 11.69 22 15C22 16.43 21.13 17.76 19.85 18.65Z"
    fill="#C4DFE6"
  />
</svg> 